{
  "accessors": [
    {
      "bufferView": 2,
      "componentType": 5126,
      "count": 2869,
      "max": [
        0.9872310161590576,
        0.9959790110588074,
        0.9959779977798462
      ],
      "min": [
        -0.9872310161590576,
        -0.9959779977798462,
        -0.9959790110588074
      ],
      "type": "VEC3"
    },
    {
      "bufferView": 2,
      "byteOffset": 34428,
      "componentType": 5126,
      "count": 2869,
      "max": [
        1.0,
        0.9998815059661865,
        0.9998815059661865
      ],
      "min": [
        -1.0,
        -0.9998815059661865,
        -0.9998815059661865
      ],
      "type": "VEC3"
    },
    {
      "bufferView": 1,
      "componentType": 5126,
      "count": 2869,
      "max": [
        1.0,
        1.0
      ],
      "min": [
        0.0,
        0.0
      ],
      "type": "VEC2"
    },
    {
      "bufferView": 0,
      "componentType": 5125,
      "count": 14976,
      "type": "SCALAR"
    },
    {
      "bufferView": 2,
      "byteOffset": 68856,
      "componentType": 5126,
      "count": 402,
      "max": [
        0.7150800228118896,
        0.7197290062904358,
        0.7197290062904358
      ],
      "min": [
        -0.7150800228118896,
        -0.7197290062904358,
        -0.7197290062904358
      ],
      "type": "VEC3"
    },
    {
      "bufferView": 2,
      "byteOffset": 73680,
      "componentType": 5126,
      "count": 402,
      "max": [
        0.7093033790588379,
        0.7072054147720337,
        0.7072054147720337
      ],
      "min": [
        -0.7093033790588379,
        -0.7072054147720337,
        -0.7072054147720337
      ],
      "type": "VEC3"
    },
    {
      "bufferView": 1,
      "byteOffset": 22952,
      "componentType": 5126,
      "count": 402,
      "max": [
        1.0,
        0.778249979019165
      ],
      "min": [
        0.0,
        0.22175000607967377
      ],
      "type": "VEC2"
    },
    {
      "bufferView": 0,
      "byteOffset": 59904,
      "componentType": 5125,
      "count": 1536,
      "type": "SCALAR"
    }
  ],
  "asset": {
    "extras": {
      "author": "Yerassyl Serik (https://sketchfab.com/yeraaaa)",
      "license": "CC-BY-4.0 (http://creativecommons.org/licenses/by/4.0/)",
      "source": "https://sketchfab.com/3d-models/tennis-ball-3dad21f88ff6468390dabebba7aef3b7",
      "title": "Tennis ball"
    },
    "generator": "Sketchfab-16.15.0",
    "version": "2.0"
  },
  "bufferViews": [
    {
      "buffer": 0,
      "byteLength": 66048,
      "name": "floatBufferViews",
      "target": 34963
    },
    {
      "buffer": 0,
      "byteLength": 26168,
      "byteOffset": 66048,
      "byteStride": 8,
      "name": "floatBufferViews",
      "target": 34962
    },
    {
      "buffer": 0,
      "byteLength": 78504,
      "byteOffset": 92216,
      "byteStride": 12,
      "name": "floatBufferViews",
      "target": 34962
    }
  ],
  "buffers": [
    {
      "byteLength": 170720,
      "uri": "scene.bin"
    }
  ],
  "materials": [
    {
      "doubleSided": true,
      "name": "Base",
      "pbrMetallicRoughness": {
        "baseColorFactor": [
          0.289984,
          0.8,
          0.068172,
          1.0
        ],
        "metallicFactor": 0.0,
        "roughnessFactor": 0.8011823178082373
      }
    },
    {
      "doubleSided": true,
      "name": "Line",
      "pbrMetallicRoughness": {
        "baseColorFactor": [
          0.8,
          0.8,
          0.8,
          1.0
        ],
        "metallicFactor": 0.0,
        "roughnessFactor": 0.8011823178082373
      }
    }
  ],
  "meshes": [
    {
      "name": "Object_0",
      "primitives": [
        {
          "attributes": {
            "NORMAL": 1,
            "POSITION": 0,
            "TEXCOORD_0": 2
          },
          "indices": 3,
          "material": 0,
          "mode": 4
        }
      ]
    },
    {
      "name": "Object_1",
      "primitives": [
        {
          "attributes": {
            "NORMAL": 5,
            "POSITION": 4,
            "TEXCOORD_0": 6
          },
          "indices": 7,
          "material": 1,
          "mode": 4
        }
      ]
    }
  ],
  "nodes": [
    {
      "children": [
        1
      ],
      "matrix": [
        1.0,
        0.0,
        0.0,
        0.0,
        0.0,
        2.220446049250313e-16,
        -1.0,
        0.0,
        0.0,
        1.0,
        2.220446049250313e-16,
        0.0,
        0.0,
        0.0,
        0.0,
        1.0
      ],
      "name": "Sketchfab_model"
    },
    {
      "children": [
        2,
        3
      ],
      "name": "tennisball.obj.cleaner.materialmerger.gles"
    },
    {
      "mesh": 0,
      "name": "Object_2"
    },
    {
      "mesh": 1,
      "name": "Object_3"
    }
  ],
  "scene": 0,
  "scenes": [
    {
      "name": "Sketchfab_Scene",
      "nodes": [
        0
      ]
    }
  ]
}
