{
  "accessors": [
    {
      "bufferView": 2,
      "componentType": 5126,
      "count": 120,
      "max": [
        52.1828727722168,
        2.1315295696258545,
        0.47798585891723633
      ],
      "min": [
        -52.1828727722168,
        -8.344650268554688e-07,
        -0.4779839813709259
      ],
      "type": "VEC3"
    },
    {
      "bufferView": 2,
      "byteOffset": 1440,
      "componentType": 5126,
      "count": 120,
      "max": [
        1.0,
        1.0,
        1.0
      ],
      "min": [
        -1.0,
        -1.0,
        -1.0
      ],
      "type": "VEC3"
    },
    {
      "bufferView": 1,
      "componentType": 5126,
      "count": 120,
      "max": [
        0.875,
        1.0
      ],
      "min": [
        0.125,
        0.0
      ],
      "type": "VEC2"
    },
    {
      "bufferView": 0,
      "componentType": 5125,
      "count": 216,
      "type": "SCALAR"
    },
    {
      "bufferView": 2,
      "byteOffset": 2880,
      "componentType": 5126,
      "count": 92,
      "max": [
        12.012969970703125,
        2.0782880783081055,
        0.0328155979514122
      ],
      "min": [
        -12.012969970703125,
        0.0010434575378894806,
        -0.0328155979514122
      ],
      "type": "VEC3"
    },
    {
      "bufferView": 2,
      "byteOffset": 3984,
      "componentType": 5126,
      "count": 92,
      "max": [
        1.0,
        1.0,
        1.0
      ],
      "min": [
        -1.0,
        -1.0,
        -1.0
      ],
      "type": "VEC3"
    },
    {
      "bufferView": 1,
      "byteOffset": 960,
      "componentType": 5126,
      "count": 92,
      "max": [
        0.875,
        1.0
      ],
      "min": [
        0.125,
        0.0
      ],
      "type": "VEC2"
    },
    {
      "bufferView": 0,
      "byteOffset": 864,
      "componentType": 5125,
      "count": 162,
      "type": "SCALAR"
    },
    {
      "bufferView": 2,
      "byteOffset": 5088,
      "componentType": 5126,
      "count": 65532,
      "max": [
        11.873462677001953,
        2.124220848083496,
        0.004923696629703045
      ],
      "min": [
        -11.873462677001953,
        0.011602282524108887,
        -0.004923672415316105
      ],
      "type": "VEC3"
    },
    {
      "bufferView": 2,
      "byteOffset": 791472,
      "componentType": 5126,
      "count": 65532,
      "max": [
        0.8121258616447449,
        0.812049150466919,
        0.5775773525238037
      ],
      "min": [
        -0.812138020992279,
        -0.8120396137237549,
        -0.5775938034057617
      ],
      "type": "VEC3"
    },
    {
      "bufferView": 1,
      "byteOffset": 1696,
      "componentType": 5126,
      "count": 65532,
      "max": [
        1.0,
        1.0
      ],
      "min": [
        0.0,
        0.0
      ],
      "type": "VEC2"
    },
    {
      "bufferView": 0,
      "byteOffset": 1512,
      "componentType": 5125,
      "count": 98298,
      "type": "SCALAR"
    },
    {
      "bufferView": 2,
      "byteOffset": 1577856,
      "componentType": 5126,
      "count": 65532,
      "max": [
        11.873462677001953,
        2.124220848083496,
        0.004923696629703045
      ],
      "min": [
        -11.873462677001953,
        0.011602282524108887,
        -0.004923672415316105
      ],
      "type": "VEC3"
    },
    {
      "bufferView": 2,
      "byteOffset": 2364240,
      "componentType": 5126,
      "count": 65532,
      "max": [
        0.8121253252029419,
        0.8120471835136414,
        0.5775773525238037
      ],
      "min": [
        -0.8121377825737,
        -0.8120396137237549,
        -0.5775930285453796
      ],
      "type": "VEC3"
    },
    {
      "bufferView": 1,
      "byteOffset": 525952,
      "componentType": 5126,
      "count": 65532,
      "max": [
        1.0,
        1.0
      ],
      "min": [
        0.0,
        0.0
      ],
      "type": "VEC2"
    },
    {
      "bufferView": 0,
      "byteOffset": 394704,
      "componentType": 5125,
      "count": 98298,
      "type": "SCALAR"
    },
    {
      "bufferView": 2,
      "byteOffset": 3150624,
      "componentType": 5126,
      "count": 22536,
      "max": [
        8.107870101928711,
        1.9847543239593506,
        0.004923696629703045
      ],
      "min": [
        2.3691158294677734,
        0.7089354991912842,
        -0.004923672415316105
      ],
      "type": "VEC3"
    },
    {
      "bufferView": 2,
      "byteOffset": 3421056,
      "componentType": 5126,
      "count": 22536,
      "max": [
        0.8120834827423096,
        0.8120309710502625,
        0.5774402022361755
      ],
      "min": [
        -0.8120840191841125,
        -0.8120310306549072,
        -0.5774450302124023
      ],
      "type": "VEC3"
    },
    {
      "bufferView": 1,
      "byteOffset": 1050208,
      "componentType": 5126,
      "count": 22536,
      "max": [
        1.0,
        1.0
      ],
      "min": [
        0.0,
        0.0
      ],
      "type": "VEC2"
    },
    {
      "bufferView": 0,
      "byteOffset": 787896,
      "componentType": 5125,
      "count": 33804,
      "type": "SCALAR"
    },
    {
      "bufferView": 2,
      "byteOffset": 3691488,
      "componentType": 5126,
      "count": 1524,
      "max": [
        12.223920822143555,
        2.223527669906616,
        0.04011758044362068
      ],
      "min": [
        -12.223920822143555,
        0.03489047288894653,
        -0.0401170514523983
      ],
      "type": "VEC3"
    },
    {
      "bufferView": 2,
      "byteOffset": 3709776,
      "componentType": 5126,
      "count": 1524,
      "max": [
        1.0,
        1.0,
        1.0
      ],
      "min": [
        -1.0,
        -1.0,
        -1.0
      ],
      "type": "VEC3"
    },
    {
      "bufferView": 1,
      "byteOffset": 1230496,
      "componentType": 5126,
      "count": 1524,
      "max": [
        0.875,
        1.0
      ],
      "min": [
        0.125,
        0.0
      ],
      "type": "VEC2"
    },
    {
      "bufferView": 0,
      "byteOffset": 923112,
      "componentType": 5125,
      "count": 2292,
      "type": "SCALAR"
    },
    {
      "bufferView": 2,
      "byteOffset": 3728064,
      "componentType": 5126,
      "count": 16,
      "max": [
        1.0,
        0.0,
        1.0
      ],
      "min": [
        -1.0,
        0.0,
        -1.0
      ],
      "type": "VEC3"
    },
    {
      "bufferView": 2,
      "byteOffset": 3728256,
      "componentType": 5126,
      "count": 16,
      "max": [
        0.0,
        1.0,
        -0.0
      ],
      "min": [
        0.0,
        1.0,
        -0.0
      ],
      "type": "VEC3"
    },
    {
      "bufferView": 1,
      "byteOffset": 1242688,
      "componentType": 5126,
      "count": 16,
      "max": [
        0.9606907963752747,
        0.9494447708129883
      ],
      "min": [
        0.05512167885899544,
        0.054740458726882935
      ],
      "type": "VEC2"
    },
    {
      "bufferView": 0,
      "byteOffset": 932280,
      "componentType": 5125,
      "count": 24,
      "type": "SCALAR"
    },
    {
      "bufferView": 2,
      "byteOffset": 3728448,
      "componentType": 5126,
      "count": 8,
      "max": [
        1.7044285535812378,
        0.0,
        1.4321831464767456
      ],
      "min": [
        -1.7044285535812378,
        0.0,
        -1.4321831464767456
      ],
      "type": "VEC3"
    },
    {
      "bufferView": 2,
      "byteOffset": 3728544,
      "componentType": 5126,
      "count": 8,
      "max": [
        0.0,
        1.0,
        -0.0
      ],
      "min": [
        0.0,
        1.0,
        -0.0
      ],
      "type": "VEC3"
    },
    {
      "bufferView": 1,
      "byteOffset": 1242816,
      "componentType": 5126,
      "count": 8,
      "max": [
        0.0,
        0.0
      ],
      "min": [
        0.0,
        0.0
      ],
      "type": "VEC2"
    },
    {
      "bufferView": 0,
      "byteOffset": 932376,
      "componentType": 5125,
      "count": 24,
      "type": "SCALAR"
    }
  ],
  "asset": {
    "extras": {
      "author": "giovax1 (https://sketchfab.com/giovax1)",
      "license": "CC-BY-4.0 (http://creativecommons.org/licenses/by/4.0/)",
      "source": "https://sketchfab.com/3d-models/red-clay-tennis-court-c629d27c111d477f95a56cc41b93c477",
      "title": "Red clay tennis court"
    },
    "generator": "Sketchfab-16.59.0",
    "version": "2.0"
  },
  "bufferViews": [
    {
      "buffer": 0,
      "byteLength": 932472,
      "name": "floatBufferViews",
      "target": 34963
    },
    {
      "buffer": 0,
      "byteLength": 1242880,
      "byteOffset": 932472,
      "byteStride": 8,
      "name": "floatBufferViews",
      "target": 34962
    },
    {
      "buffer": 0,
      "byteLength": 3728640,
      "byteOffset": 2175352,
      "byteStride": 12,
      "name": "floatBufferViews",
      "target": 34962
    }
  ],
  "buffers": [
    {
      "byteLength": 5903992,
      "uri": "scene.bin"
    }
  ],
  "images": [
    {
      "uri": "textures/texture-campo_baseColor.png"
    }
  ],
  "materials": [
    {
      "doubleSided": true,
      "name": "material_0",
      "pbrMetallicRoughness": {
        "metallicFactor": 0.0,
        "roughnessFactor": 0.6
      }
    },
    {
      "doubleSided": true,
      "name": "Material.003",
      "pbrMetallicRoughness": {
        "baseColorFactor": [
          0.0,
          0.0014561,
          0.0868869,
          1.0
        ],
        "metallicFactor": 0.0,
        "roughnessFactor": 0.5
      }
    },
    {
      "doubleSided": true,
      "name": "Material.004",
      "pbrMetallicRoughness": {
        "baseColorFactor": [
          0.0,
          0.0,
          0.0,
          1.0
        ],
        "metallicFactor": 0.0,
        "roughnessFactor": 0.5
      }
    },
    {
      "doubleSided": true,
      "name": "texture-campo",
      "pbrMetallicRoughness": {
        "baseColorTexture": {
          "index": 0
        },
        "roughnessFactor": 0.718182
      }
    }
  ],
  "meshes": [
    {
      "name": "Object_0",
      "primitives": [
        {
          "attributes": {
            "NORMAL": 1,
            "POSITION": 0,
            "TEXCOORD_0": 2
          },
          "indices": 3,
          "material": 1,
          "mode": 4
        }
      ]
    },
    {
      "name": "Object_1",
      "primitives": [
        {
          "attributes": {
            "NORMAL": 5,
            "POSITION": 4,
            "TEXCOORD_0": 6
          },
          "indices": 7,
          "material": 2,
          "mode": 4
        }
      ]
    },
    {
      "name": "Object_2",
      "primitives": [
        {
          "attributes": {
            "NORMAL": 9,
            "POSITION": 8,
            "TEXCOORD_0": 10
          },
          "indices": 11,
          "material": 2,
          "mode": 4
        }
      ]
    },
    {
      "name": "Object_3",
      "primitives": [
        {
          "attributes": {
            "NORMAL": 13,
            "POSITION": 12,
            "TEXCOORD_0": 14
          },
          "indices": 15,
          "material": 2,
          "mode": 4
        }
      ]
    },
    {
      "name": "Object_4",
      "primitives": [
        {
          "attributes": {
            "NORMAL": 17,
            "POSITION": 16,
            "TEXCOORD_0": 18
          },
          "indices": 19,
          "material": 2,
          "mode": 4
        }
      ]
    },
    {
      "name": "Object_5",
      "primitives": [
        {
          "attributes": {
            "NORMAL": 21,
            "POSITION": 20,
            "TEXCOORD_0": 22
          },
          "indices": 23,
          "material": 0,
          "mode": 4
        }
      ]
    },
    {
      "name": "Object_6",
      "primitives": [
        {
          "attributes": {
            "NORMAL": 25,
            "POSITION": 24,
            "TEXCOORD_0": 26
          },
          "indices": 27,
          "material": 3,
          "mode": 4
        }
      ]
    },
    {
      "name": "Object_7",
      "primitives": [
        {
          "attributes": {
            "NORMAL": 29,
            "POSITION": 28,
            "TEXCOORD_0": 30
          },
          "indices": 31,
          "material": 3,
          "mode": 4
        }
      ]
    }
  ],
  "nodes": [
    {
      "children": [
        1
      ],
      "matrix": [
        1.0,
        0.0,
        0.0,
        0.0,
        0.0,
        2.220446049250313e-16,
        -1.0,
        0.0,
        0.0,
        1.0,
        2.220446049250313e-16,
        0.0,
        0.0,
        0.0,
        0.0,
        1.0
      ],
      "name": "Sketchfab_model"
    },
    {
      "children": [
        2
      ],
      "name": "root"
    },
    {
      "children": [
        3,
        5,
        7,
        11,
        13,
        15
      ],
      "matrix": [
        1.0,
        0.0,
        0.0,
        0.0,
        0.0,
        2.220446049250313e-16,
        1.0,
        0.0,
        0.0,
        -1.0,
        2.220446049250313e-16,
        0.0,
        0.0,
        0.0,
        0.0,
        1.0
      ],
      "name": "GLTF_SceneRootNode"
    },
    {
      "children": [
        4
      ],
      "matrix": [
        0.23482674360275269,
        0.0,
        0.0,
        0.0,
        0.0,
        1.0700000524520874,
        0.0,
        0.0,
        0.0,
        0.0,
        0.23482674360275269,
        0.0,
        0.0,
        0.0,
        0.0,
        1.0
      ],
      "name": "net-poles_0"
    },
    {
      "mesh": 0,
      "name": "Object_4"
    },
    {
      "children": [
        6
      ],
      "name": "bottom-net_1"
    },
    {
      "mesh": 1,
      "name": "Object_6"
    },
    {
      "children": [
        8,
        9,
        10
      ],
      "name": "net_2"
    },
    {
      "mesh": 2,
      "name": "Object_8"
    },
    {
      "mesh": 3,
      "name": "Object_9"
    },
    {
      "mesh": 4,
      "name": "Object_10"
    },
    {
      "children": [
        12
      ],
      "name": "white-part_3"
    },
    {
      "mesh": 5,
      "name": "Object_12"
    },
    {
      "children": [
        14
      ],
      "matrix": [
        10.970000267028809,
        0.0,
        0.0,
        0.0,
        0.0,
        1.0,
        0.0,
        0.0,
        0.0,
        0.0,
        23.770000457763672,
        0.0,
        0.0,
        0.0,
        0.0,
        1.0
      ],
      "name": "court_4"
    },
    {
      "mesh": 6,
      "name": "Object_14"
    },
    {
      "children": [
        16
      ],
      "matrix": [
        10.970000267028809,
        0.0,
        0.0,
        0.0,
        0.0,
        1.0,
        0.0,
        0.0,
        0.0,
        0.0,
        23.770000457763672,
        0.0,
        0.0,
        0.0,
        0.0,
        1.0
      ],
      "name": "external-court_5"
    },
    {
      "mesh": 7,
      "name": "Object_16"
    }
  ],
  "samplers": [
    {
      "magFilter": 9729,
      "minFilter": 9987,
      "wrapS": 10497,
      "wrapT": 10497
    }
  ],
  "scene": 0,
  "scenes": [
    {
      "name": "Sketchfab_Scene",
      "nodes": [
        0
      ]
    }
  ],
  "textures": [
    {
      "sampler": 0,
      "source": 0
    }
  ]
}
